<?xml version="1.0" encoding="UTF-8"?>
<svg width="115px" height="88px" viewBox="0 0 115 88" version="1.1" xmlns="http://www.w3.org/2000/svg" xmlns:xlink="http://www.w3.org/1999/xlink">
    <!-- Generator: Sketch 48.1 (47250) - http://www.bohemiancoding.com/sketch -->
    <title>thyssenkrupp_logo_t</title>
    <desc>Created with Sketch.</desc>
    <defs></defs>
    <g id="Header_Internet_T" stroke="none" stroke-width="1" fill="none" fill-rule="evenodd" transform="translate(-22.000000, -30.000000)">
        <g id="00_04-Header-Encasa_T" transform="translate(-1.000000, 0.000000)" fill="#FFFFFF">
            <g id="00_01_Header_T-INTERNET-ENCASA">
                <g transform="translate(0.500000, 0.000000)">
                    <g id="thyssenkrupp_logo_t" transform="translate(1.000000, 0.000000)">
                        <g id="Logo" transform="translate(21.435644, 30.435644)">
                            <path d="M77.5118317,20.286505 C77.331802,9.22113861 68.2803564,0.273633663 57.172495,0.273633663 C46.0649208,0.273633663 37.0134752,9.22113861 36.8334455,20.286505 C29.6497723,23.4311386 24.6161188,30.6041881 24.6161188,38.9343663 C24.6161188,50.1539208 33.7439406,59.2817426 44.9640693,59.2817426 C49.5411881,59.2817426 53.7694455,57.7616832 57.172495,55.2010693 C60.5758317,57.7616832 64.803802,59.2817426 69.3812079,59.2817426 C80.6010495,59.2817426 89.7288713,50.1539208 89.7288713,38.9343663 C89.7288713,30.6041881 84.695505,23.4311386 77.5118317,20.286505 L77.5118317,20.286505 Z M65.2218614,37.0654455 C64.7518317,31.926703 62.3640693,27.3360891 58.7812772,24.0151584 C60.897703,22.5071584 63.3454752,21.4378911 65.9942376,20.9405842 C67.7922376,24.322099 69.4475347,28.4280396 70.9144752,32.7065446 C69.3286634,34.507703 67.3971485,35.9964653 65.2218614,37.0654455 L65.2218614,37.0654455 Z M57.172495,52.5692475 C53.6870396,49.4452871 51.403505,45.0088614 51.1051782,40.0446931 C53.0223366,40.6447921 55.0600891,40.9689604 57.172495,40.9689604 C59.284901,40.9689604 61.3229406,40.6447921 63.240099,40.0446931 C62.9414851,45.0088614 60.6579505,49.4452871 57.172495,52.5692475 L57.172495,52.5692475 Z M43.4305149,32.7062574 C44.8974554,28.4280396 46.5527525,24.3218119 48.3510396,20.940297 C50.999802,21.4378911 53.4475743,22.5068713 55.564,24.0151584 C51.9806337,27.3360891 49.5931584,31.926703 49.1225545,37.0651584 C46.9478416,35.9961782 45.0166139,34.5074158 43.4305149,32.7062574 L43.4305149,32.7062574 Z M41.9434752,30.7781881 C40.1782079,28.1397624 39.0799406,25.0201089 38.8910099,21.660703 C40.7926634,20.9899703 42.8355842,20.621297 44.9640693,20.621297 C45.382703,20.621297 45.7964554,20.6405347 46.208198,20.668099 C44.7590594,23.4687525 43.3363366,26.8379208 41.9434752,30.7781881 L41.9434752,30.7781881 Z M49.4019307,19.079703 C51.8011782,15.0845941 54.4246733,12.4823465 57.172495,12.4823465 C59.920604,12.4823465 62.5438119,15.0845941 64.9430594,19.079703 C62.0803861,19.7194257 59.4419604,20.9595347 57.172495,22.6670891 C54.9027426,20.9595347 52.264604,19.7194257 49.4019307,19.079703 L49.4019307,19.079703 Z M57.172495,38.9340792 C55.044297,38.9340792 53.0013762,38.5654059 51.0997228,37.8946733 C51.3805347,32.9017921 53.6703861,28.4383762 57.172495,25.299198 C60.674604,28.4383762 62.9644554,32.9017921 63.2455545,37.8949604 C61.343901,38.5654059 59.3006931,38.9340792 57.172495,38.9340792 L57.172495,38.9340792 Z M68.1370792,20.668099 C68.5485347,20.6405347 68.9625743,20.621297 69.3812079,20.621297 C71.5096931,20.621297 73.5523267,20.9899703 75.4542673,21.660703 C75.2653366,25.0201089 74.1673564,28.1400495 72.4015149,30.7784752 C71.0089406,26.8382079 69.5862178,23.4687525 68.1370792,20.668099 L68.1370792,20.668099 Z M57.172495,2.30851485 C66.8969703,2.30851485 74.8725446,9.92862376 75.449099,19.5106832 C73.5316535,18.9105842 71.4936139,18.5864158 69.3812079,18.5864158 C68.600505,18.5864158 67.831,18.6349406 67.0729802,18.7210792 C63.884703,13.2225644 60.5738218,10.4474653 57.172495,10.4474653 C53.7711683,10.4474653 50.4602871,13.2225644 47.272297,18.7210792 C46.5139901,18.6349406 45.7447723,18.5864158 44.9640693,18.5864158 C42.8516634,18.5864158 40.8136238,18.9105842 38.8964653,19.5106832 C39.4730198,9.92862376 47.4480198,2.30851485 57.172495,2.30851485 L57.172495,2.30851485 Z M26.651,38.9343663 C26.651,31.7234158 30.8416436,25.4749208 36.9141287,22.4902178 C37.2793564,26.479297 38.8011386,30.1364554 41.139802,33.1277624 C41.1027624,33.2388812 41.0657228,33.3459802 41.0289703,33.4576733 C38.103703,42.3417228 36.1492178,51.3136337 35.4756139,54.5923564 C30.1892871,51.3770891 26.651,45.5610099 26.651,38.9343663 L26.651,38.9343663 Z M44.9640693,57.2471485 C42.2469703,57.2471485 39.6688416,56.6479109 37.3476931,55.5815149 C38.3365644,50.5145545 40.2063465,42.5877921 42.6977624,34.9045149 C44.5043762,36.7349604 46.6541089,38.2237228 49.0418713,39.2688713 C49.1354752,45.0243663 51.6277525,50.2050297 55.564,53.8532871 C52.5698218,55.9866535 48.9123762,57.2471485 44.9640693,57.2471485 L44.9640693,57.2471485 Z M58.7809901,53.8532871 C62.7172376,50.2050297 65.2092277,45.0243663 65.3031188,39.2688713 C67.6905941,38.2237228 69.8406139,36.7349604 71.6469406,34.9045149 C74.1386436,42.5877921 76.0087129,50.5145545 76.997297,55.5815149 C74.6764356,56.6479109 72.0983069,57.2471485 69.3812079,57.2471485 C65.4326139,57.2471485 61.7748812,55.9866535 58.7809901,53.8532871 L58.7809901,53.8532871 Z M78.8693762,54.5923564 C78.1960594,51.3136337 76.2412871,42.3417228 73.3160198,33.4576733 C73.2792673,33.3459802 73.2422277,33.2388812 73.2051881,33.1277624 C75.5441386,30.1364554 77.0656337,26.479297 77.4308614,22.4902178 C83.5033465,25.4749208 87.6942772,31.7234158 87.6942772,38.9343663 C87.6942772,45.5610099 84.1559901,51.3770891 78.8693762,54.5923564 L78.8693762,54.5923564 Z" id="Fill-1"></path>
                            <path d="M108.799099,82.0697129 C108.509673,81.9439505 108.262743,81.7653564 108.058594,81.5336436 C107.854158,81.3022178 107.695663,81.0248515 107.583396,80.7006832 C107.471416,80.3773762 107.415139,80.0184653 107.415139,79.6233762 L107.415139,77.0291683 C107.415139,76.5933069 107.481465,76.2102772 107.614119,75.8800792 C107.747059,75.5498812 107.921921,75.2736634 108.140139,75.0525743 C108.358069,74.831198 108.611891,74.666099 108.90103,74.5569901 C109.190455,74.4484554 109.488208,74.393901 109.794861,74.393901 C110.121614,74.393901 110.426257,74.4536238 110.708792,74.572495 C110.991614,74.6916535 111.22304,74.875703 111.403644,75.1240693 C111.58396,75.3727228 111.725228,75.6945941 111.827733,76.089396 C111.902386,76.3822673 111.954931,76.7159109 111.985941,77.0900396 C112.016376,77.4647426 112.032168,77.8632772 112.032168,78.2853564 C112.032168,78.6121089 112.016376,78.9767624 111.985941,79.3781683 C111.954931,79.7804356 111.915881,80.1106337 111.868505,80.3687624 C111.752505,80.9616832 111.524525,81.4245347 111.18399,81.7584653 C110.843455,82.0918218 110.366822,82.2583564 109.753802,82.2583564 C109.406663,82.2583564 109.088525,82.1960495 108.799099,82.0697129 L108.799099,82.0697129 Z M107.415139,87.2032871 L107.415139,82.6979505 C107.571624,82.9018119 107.780941,83.1131386 108.043376,83.3313564 C108.305238,83.549 108.628545,83.7209901 109.013297,83.8470396 C109.39805,83.972802 109.852574,84.0359703 110.377158,84.0359703 C110.805842,84.0359703 111.24199,83.9644752 111.684455,83.8217723 C112.127208,83.678495 112.52201,83.4281188 112.869436,83.0706436 C113.216861,82.7131683 113.489059,82.2655347 113.686604,81.7277426 C113.842802,81.3122673 113.958802,80.8235743 114.033743,80.2616634 C114.108396,79.7000396 114.14601,79.0410792 114.14601,78.2853564 C114.14601,77.4343069 114.098347,76.6866238 114.003307,76.0431683 C113.907693,75.3997129 113.740871,74.8363663 113.502554,74.3528416 C112.917099,73.1954257 111.885446,72.6162871 110.407881,72.6162871 C109.678861,72.6162871 109.064693,72.7644455 108.563941,73.0607624 C108.063475,73.3570792 107.660059,73.7501584 107.353693,74.2402871 L107.302871,72.9436139 L105.361881,72.9436139 L105.361881,87.2032871 L107.415139,87.2032871 L107.415139,87.2032871 Z M98.2999505,82.0697129 C98.0108119,81.9439505 97.7641683,81.7653564 97.5600198,81.5336436 C97.355297,81.3022178 97.1973762,81.0248515 97.0845347,80.7006832 C96.9722673,80.3773762 96.9159901,80.0184653 96.9159901,79.6233762 L96.9159901,77.0291683 C96.9159901,76.5933069 96.982604,76.2102772 97.1152574,75.8800792 C97.2479109,75.5498812 97.4236337,75.2736634 97.6412772,75.0525743 C97.859495,74.831198 98.1127426,74.666099 98.4024554,74.5569901 C98.6918812,74.4484554 98.9899208,74.393901 99.2962871,74.393901 C99.6233267,74.393901 99.9276832,74.4536238 100.210505,74.572495 C100.49304,74.6916535 100.724465,74.875703 100.905356,75.1240693 C101.085386,75.3727228 101.226653,75.6945941 101.328871,76.089396 C101.403812,76.3822673 101.456644,76.7159109 101.487366,77.0900396 C101.517802,77.4647426 101.53302,77.8632772 101.53302,78.2853564 C101.53302,78.6121089 101.517802,78.9767624 101.487366,79.3781683 C101.456644,79.7804356 101.417307,80.1106337 101.369644,80.3687624 C101.253931,80.9616832 101.025663,81.4245347 100.685416,81.7584653 C100.344881,82.0918218 99.8682475,82.2583564 99.2555149,82.2583564 C98.9080891,82.2583564 98.5896634,82.1960495 98.2999505,82.0697129 L98.2999505,82.0697129 Z M96.9159901,87.2032871 L96.9159901,82.6979505 C97.0727624,82.9018119 97.2820792,83.1131386 97.5445149,83.3313564 C97.8066634,83.549 98.1302574,83.7209901 98.5147228,83.8470396 C98.8994752,83.972802 99.354,84.0359703 99.878297,84.0359703 C100.307554,84.0359703 100.743129,83.9644752 101.185881,83.8217723 C101.628347,83.678495 102.023436,83.4281188 102.370574,83.0706436 C102.718,82.7131683 102.990198,82.2655347 103.187743,81.7277426 C103.344515,81.3122673 103.460228,80.8235743 103.535168,80.2616634 C103.610109,79.7000396 103.647436,79.0410792 103.647436,78.2853564 C103.647436,77.4343069 103.599485,76.6866238 103.504158,76.0431683 C103.408832,75.3997129 103.242297,74.8363663 103.00398,74.3528416 C102.418238,73.1954257 101.386584,72.6162871 99.9090198,72.6162871 C99.1805743,72.6162871 98.5658317,72.7644455 98.0656535,73.0607624 C97.5651881,73.3570792 97.1617723,73.7501584 96.8551188,74.2402871 L96.8037228,72.9436139 L94.8633069,72.9436139 L94.8633069,87.2032871 L96.9159901,87.2032871 L96.9159901,87.2032871 Z M89.4664356,83.571396 C89.9941782,83.261297 90.4418119,82.8512772 90.8099109,82.3404752 L90.830297,83.6988812 L92.771,83.6988812 L92.771,72.9436139 L90.7177426,72.9436139 L90.7177426,79.2862871 C90.7177426,79.647495 90.6396436,80.0440198 90.4828713,80.4764356 C90.326099,80.9088515 90.0484455,81.2915941 89.6504851,81.6255248 C89.2522376,81.9588812 88.8008713,82.125703 88.2972475,82.125703 C87.6845149,82.125703 87.2279802,81.9709406 86.9282178,81.6611287 C86.6287426,81.3513168 86.4788614,80.8663564 86.4788614,80.2059604 L86.4788614,72.9436139 L84.4258911,72.9436139 L84.4258911,80.767297 C84.4258911,81.394099 84.5177723,81.9163861 84.7015347,82.3355941 C84.8855842,82.7542277 85.1256238,83.0898812 85.4219406,83.3414059 C85.7179703,83.593505 86.0516139,83.772099 86.4225842,83.8774752 C86.7935545,83.9831386 87.1665347,84.0359703 87.5412376,84.0359703 C88.2972475,84.0359703 88.9389802,83.8812079 89.4664356,83.571396 L89.4664356,83.571396 Z M79.676495,83.6988812 L79.676495,78.7447624 C79.676495,78.2956931 79.7342079,77.7748416 79.8502079,77.1822079 C79.9656337,76.5898614 80.2464455,76.0704455 80.6926436,75.6245347 C81.1385545,75.1783366 81.739802,74.9555248 82.4952376,74.9555248 C82.7476238,74.9555248 82.9345446,74.9693069 83.0574356,74.9960099 L83.0574356,72.9229406 L82.7918416,72.9229406 C82.0969901,72.9229406 81.4704752,73.1239307 80.912297,73.5256238 C80.3538317,73.9273168 79.9107921,74.4892277 79.5843267,75.2107822 L79.5639406,72.9436139 L77.6235248,72.9436139 L77.6235248,83.6988812 L79.676495,83.6988812 L79.676495,83.6988812 Z M69.7593564,83.6988812 L69.7593564,79.3882178 L71.1789208,77.9485545 L73.9982376,83.6988812 L76.3268515,83.6988812 L72.680604,76.4161485 L76.0919802,72.9436139 L73.651099,72.9436139 L69.7593564,76.9166139 L69.7593564,69.1428911 L67.7063861,69.1428911 L67.7063861,83.6988812 L69.7593564,83.6988812 L69.7593564,83.6988812 Z M59.0276337,83.6988812 L59.0276337,77.3556337 C59.0276337,76.9881089 59.1074554,76.5832574 59.2676733,76.140505 C59.427604,75.6980396 59.7052574,75.3132871 60.0997723,74.9859604 C60.4945743,74.6592079 60.9511089,74.4961188 61.468802,74.4961188 C62.0815347,74.4961188 62.5274455,74.652604 62.8065347,74.9658614 C63.0859109,75.2794059 63.2257426,75.7623564 63.2257426,76.4161485 L63.2257426,83.6988812 L65.279,83.6988812 L65.279,75.8746238 C65.279,75.2417921 65.1644356,74.6698317 64.9361683,74.1587426 C64.7081881,73.6482277 64.357604,73.2634752 63.8844158,73.0044851 C63.4112277,72.7457822 62.8579307,72.6162871 62.2245248,72.6162871 C61.462198,72.6162871 60.8150099,72.769901 60.2841089,73.0762673 C59.7526337,73.3826337 59.3035644,73.7912178 58.9357525,74.3017327 L58.9150792,72.9436139 L56.9746634,72.9436139 L56.9746634,83.6988812 L59.0276337,83.6988812 L59.0276337,83.6988812 Z M48.5939505,75.9004653 C48.7128218,75.4884356 48.8710297,75.1616832 49.0685743,74.9199208 C49.2661188,74.6784455 49.5009901,74.5078911 49.7737624,74.4088317 C50.0456733,74.3106337 50.3457228,74.2612475 50.6721881,74.2612475 C51.0196139,74.2612475 51.3653168,74.3290099 51.7090099,74.465396 C52.052703,74.6012079 52.3286337,74.9147525 52.5362277,75.4051683 C52.7441089,75.895297 52.8480495,76.5760792 52.8480495,77.447802 L48.3946832,77.447802 C48.4078911,76.8281782 48.474505,76.3122079 48.5939505,75.9004653 L48.5939505,75.9004653 Z M52.4546832,83.8008119 C52.9824257,83.6446139 53.4283366,83.4045743 53.7929901,83.0812673 C54.1570693,82.7576733 54.468604,82.3508119 54.7273069,81.8606832 L53.1033069,81.0231287 C53.0148713,81.1727228 52.8850891,81.3464356 52.715396,81.5436931 C52.5448416,81.7412376 52.3013564,81.9132277 51.9846535,82.0593762 C51.6682376,82.206099 51.3087525,82.2793168 50.9070594,82.2793168 C50.5326436,82.2793168 50.1903861,82.2316535 49.8808614,82.1360396 C49.5707624,82.0407129 49.3037327,81.8773366 49.0789109,81.6459109 C48.8540891,81.4144851 48.6803762,81.1043861 48.5580594,80.7164752 C48.4354554,80.3282772 48.3740099,79.8447525 48.3740099,79.2661881 L48.3740099,78.9695842 L54.8599604,78.9695842 L54.8599604,77.8463366 C54.8599604,77.3625248 54.8361287,76.8551683 54.7884653,76.3242673 C54.740802,75.7930792 54.6302574,75.297495 54.4565446,74.8383762 C54.2831188,74.378396 54.0261386,73.9715347 53.6853168,73.6177921 C53.3789505,73.3111386 52.994198,73.0676535 52.5313465,72.8873366 C52.0682079,72.7067327 51.4962475,72.6162871 50.8151782,72.6162871 C50.0798416,72.6162871 49.4567723,72.7101782 48.9459703,72.8973861 C48.4354554,73.0845941 48.006198,73.358802 47.6590594,73.7197228 C47.4003564,73.9784257 47.1672079,74.3137921 46.9593267,74.7255347 C46.7517327,75.1378515 46.5932376,75.672198 46.4844158,76.3294356 C46.3753069,76.9866733 46.3210396,77.7271782 46.3210396,78.5509505 C46.3210396,79.1840693 46.3552079,79.7548812 46.4229703,80.2616634 C46.4910198,80.7693069 46.6101782,81.2373267 46.7807327,81.666297 C47.0667129,82.4088119 47.5350198,82.989099 48.1853663,83.4077327 C48.8351386,83.8266535 49.6916436,84.0359703 50.7543069,84.0359703 C51.3601485,84.0359703 51.9272277,83.9575842 52.4546832,83.8008119 L52.4546832,83.8008119 Z M41.9035644,83.9288713 C42.2538614,83.8573762 42.5639604,83.7634851 42.8327129,83.6474851 C43.1017525,83.5323465 43.3334653,83.4045743 43.5275644,83.2647426 C43.7216634,83.1254851 43.8729802,82.9842178 43.981802,82.8412277 C44.1931287,82.5756337 44.363396,82.2879307 44.492604,81.9778317 C44.622099,81.6683069 44.686703,81.2778119 44.686703,80.8080693 C44.686703,80.4132673 44.642198,80.0761782 44.5537624,79.7973762 C44.4656139,79.5177129 44.363396,79.2828416 44.247396,79.0924752 C44.0840198,78.8469802 43.8491485,78.6006238 43.5427822,78.3519703 C43.2361287,78.1033168 42.6371782,77.842604 41.7450693,77.5704059 C41.2957129,77.4409109 40.8971782,77.311703 40.5503267,77.1822079 C40.2026139,77.053 39.9080198,76.9151782 39.6665446,76.7684554 C39.4247822,76.6220198 39.2424554,76.4623762 39.1198515,76.2883762 C38.9975347,76.1149505 38.9360891,75.9159703 38.9360891,75.6908614 C38.9360891,75.2280099 39.0822376,74.8774257 39.375396,74.6388218 C39.5522673,74.4823366 39.7670396,74.3732277 40.0188515,74.3117822 C40.2706634,74.2506238 40.5669802,74.219901 40.9075149,74.219901 C41.4114257,74.219901 41.8369505,74.3275743 42.1840891,74.5417723 C42.5315149,74.7562574 42.804,75.0884653 43.0012574,75.5375347 L44.6459307,74.7413267 C44.3530594,74.0260891 43.8867624,73.4934653 43.2464653,73.1425941 C42.6064554,72.7920099 41.8197228,72.6162871 40.8871287,72.6162871 C40.3628317,72.6162871 39.857198,72.6814653 39.3705149,72.8106733 C38.8835446,72.9398812 38.4746733,73.1308218 38.1444752,73.3826337 C37.8142772,73.6344455 37.5641881,73.9273168 37.3936337,74.2612475 C37.2440396,74.5268416 37.140099,74.8024851 37.0823861,75.0884653 C37.0243861,75.3744455 36.9953861,75.6365941 36.9953861,75.8746238 C36.9953861,76.1471089 37.0364455,76.435099 37.1179901,76.7380198 C37.2001089,77.0409406 37.3390792,77.3185941 37.5369109,77.5704059 C37.6931089,77.7679505 37.9182178,77.9741089 38.210802,78.1883069 C38.5036733,78.4027921 38.871198,78.5954554 39.3139505,78.7654356 L40.8871287,79.3477327 C41.1662178,79.4565545 41.4504752,79.5725545 41.7401881,79.6948713 C42.0293267,79.8174752 42.2590297,79.9825743 42.429297,80.1901683 C42.5995644,80.3983366 42.6848416,80.6754158 42.6848416,81.0231287 C42.6848416,81.2611584 42.6302871,81.4638713 42.5214653,81.6306931 C42.4123564,81.7975149 42.2659208,81.9321782 42.0821584,82.0341089 C41.898396,82.1360396 41.6836238,82.2092574 41.438703,82.2534752 C41.193495,82.2979802 40.9313465,82.319802 40.6522574,82.319802 C40.3458911,82.319802 40.0734059,82.2827624 39.8350891,82.2078218 C39.5967723,82.1325941 39.3822871,82.0289406 39.1913465,81.8962871 C39.0009802,81.7636337 38.8338713,81.6085842 38.6911683,81.4311386 C38.5478911,81.2542673 38.4218416,81.0601683 38.3130198,80.8491287 L36.6175248,81.6051386 C36.7539109,81.9660594 36.9408317,82.2928119 37.1794356,82.585396 C37.4174653,82.8782673 37.7037327,83.1303663 38.0373762,83.3414059 C38.384802,83.5524455 38.7709901,83.7209901 39.196802,83.8470396 C39.6223267,83.972802 40.1417426,84.0359703 40.7544752,84.0359703 C41.1693762,84.0359703 41.5526931,84.0003663 41.9035644,83.9288713 L41.9035644,83.9288713 Z M32.5121584,83.9288713 C32.8627426,83.8573762 33.1728416,83.7634851 33.4415941,83.6474851 C33.7106337,83.5323465 33.9420594,83.4045743 34.1361584,83.2647426 C34.3302574,83.1254851 34.4815743,82.9842178 34.5906832,82.8412277 C34.8017228,82.5756337 34.9719901,82.2879307 35.1014851,81.9778317 C35.2309802,81.6683069 35.2955842,81.2778119 35.2955842,80.8080693 C35.2955842,80.4132673 35.2510792,80.0761782 35.1626436,79.7973762 C35.0742079,79.5177129 34.9719901,79.2828416 34.8562772,79.0924752 C34.692901,78.8469802 34.4583168,78.6006238 34.1513762,78.3519703 C33.8450099,78.1033168 33.2460594,77.842604 32.3539505,77.5704059 C31.9045941,77.4409109 31.5060594,77.311703 31.1589208,77.1822079 C30.8117822,77.053 30.516901,76.9151782 30.2754257,76.7684554 C30.0336634,76.6220198 29.8513366,76.4623762 29.7290198,76.2883762 C29.6064158,76.1149505 29.5449703,75.9159703 29.5449703,75.6908614 C29.5449703,75.2280099 29.6914059,74.8774257 29.9842772,74.6388218 C30.1614356,74.4823366 30.3756337,74.3732277 30.6277327,74.3117822 C30.8795446,74.2506238 31.1758614,74.219901 31.5161089,74.219901 C32.0203069,74.219901 32.4458317,74.3275743 32.7929703,74.5417723 C33.140396,74.7562574 33.4125941,75.0884653 33.6101386,75.5375347 L35.2548119,74.7413267 C34.9619406,74.0260891 34.4953564,73.4934653 33.8556337,73.1425941 C33.2153366,72.7920099 32.4288911,72.6162871 31.4960099,72.6162871 C30.9717129,72.6162871 30.4657921,72.6814653 29.9791089,72.8106733 C29.4921386,72.9398812 29.0835545,73.1308218 28.7536436,73.3826337 C28.4228713,73.6344455 28.1727822,73.9273168 28.0025149,74.2612475 C27.8526337,74.5268416 27.7486931,74.8024851 27.6909802,75.0884653 C27.6332673,75.3744455 27.6045545,75.6365941 27.6045545,75.8746238 C27.6045545,76.1471089 27.6450396,76.435099 27.7265842,76.7380198 C27.808703,77.0409406 27.9479604,77.3185941 28.1457921,77.5704059 C28.3022772,77.7679505 28.5268119,77.9741089 28.8199703,78.1883069 C29.1125545,78.4027921 29.4803663,78.5954554 29.9228317,78.7654356 L31.4960099,79.3477327 C31.775099,79.4565545 32.0593564,79.5725545 32.3487822,79.6948713 C32.6382079,79.8174752 32.868198,79.9825743 33.0384653,80.1901683 C33.2084455,80.3983366 33.2937228,80.6754158 33.2937228,81.0231287 C33.2937228,81.2611584 33.2391683,81.4638713 33.1300594,81.6306931 C33.0209505,81.7975149 32.8750891,81.9321782 32.6907525,82.0341089 C32.5072772,82.1360396 32.292505,82.2092574 32.047297,82.2534752 C31.8023762,82.2979802 31.5399406,82.319802 31.2608515,82.319802 C30.9547723,82.319802 30.682,82.2827624 30.4439703,82.2078218 C30.2053663,82.1325941 29.9911683,82.0289406 29.8005149,81.8962871 C29.6095743,81.7636337 29.4427525,81.6085842 29.2997624,81.4311386 C29.1570594,81.2542673 29.0307228,81.0601683 28.921901,80.8491287 L27.2261188,81.6051386 C27.362505,81.9660594 27.5494257,82.2928119 27.7880297,82.585396 C28.0263465,82.8782673 28.3123267,83.1303663 28.6462574,83.3414059 C28.993396,83.5524455 29.3795842,83.7209901 29.805396,83.8470396 C30.2309208,83.972802 30.7503366,84.0359703 31.3630693,84.0359703 C31.7785446,84.0359703 32.1615743,84.0003663 32.5121584,83.9288713 L32.5121584,83.9288713 Z M19.9947822,87.2943069 C20.3829802,87.1857723 20.7608416,86.9233366 21.1283663,86.5081485 C21.4961782,86.0926733 21.8364257,85.476495 22.1499703,84.6593267 L26.7259406,72.9436139 L24.6830198,72.9436139 L21.8740396,80.3897228 L19.198,72.9436139 L17.1039703,72.9436139 L20.8119505,83.1984158 L20.3318713,84.2200198 C20.1885941,84.5947228 19.989901,84.9246337 19.7343564,85.210901 C19.4788119,85.4968812 19.1127228,85.6398713 18.6360891,85.6398713 C18.4661089,85.6398713 18.3058911,85.6260891 18.1560099,85.599099 L18.1560099,87.417198 C18.3400594,87.4444752 18.5815347,87.4579703 18.8815842,87.4579703 C19.2356139,87.4579703 19.6065842,87.4034158 19.9947822,87.2943069 L19.9947822,87.2943069 Z M9.78735644,83.6988812 L9.78735644,77.3556337 C9.78735644,76.9881089 9.86746535,76.5832574 10.0276832,76.140505 C10.1873267,75.6980396 10.4649802,75.3132871 10.8597822,74.9859604 C11.2545842,74.6592079 11.7111188,74.4961188 12.2288119,74.4961188 C12.8415446,74.4961188 13.2871683,74.652604 13.5665446,74.9658614 C13.8459208,75.2794059 13.9854653,75.7623564 13.9854653,76.4161485 L13.9854653,83.6988812 L16.0384356,83.6988812 L16.0384356,75.8746238 C16.0384356,75.2417921 15.9241584,74.6698317 15.6961782,74.1587426 C15.468198,73.6482277 15.1173267,73.2634752 14.6441386,73.0044851 C14.1709505,72.7457822 13.6179406,72.6162871 12.9845347,72.6162871 C12.2489109,72.6162871 11.6241188,72.7564059 11.1104455,73.0349208 C10.5959109,73.3145842 10.1551683,73.6958911 9.78735644,74.1794158 L9.78735644,69.1428911 L7.73438614,69.1428911 L7.73438614,83.6988812 L9.78735644,83.6988812 L9.78735644,83.6988812 Z M5.95993069,83.6991683 L5.95993069,82.0039604 C5.70122772,82.0306634 5.44252475,82.0444455 5.18382178,82.0444455 C4.86338614,82.0444455 4.6029604,82.0036733 4.40225743,81.9218416 C4.20126733,81.8400099 4.04277228,81.7174059 3.92734653,81.5543168 C3.81163366,81.3909406 3.73324752,81.1870792 3.69247525,80.9415842 C3.65170297,80.6966634 3.6310297,80.4106832 3.6310297,80.0836436 L3.6310297,74.5569901 L5.84766337,74.5569901 L5.84766337,72.9436139 L3.6310297,72.9436139 L3.6310297,69.1431782 L1.58839604,69.1431782 L1.58839604,72.9436139 L0.198980198,72.9436139 L0.198980198,74.5569901 L1.58839604,74.5569901 L1.58839604,80.1040297 C1.58839604,80.655604 1.63433663,81.1580792 1.72621782,81.6108812 C1.81781188,82.0636832 1.98520792,82.4481485 2.22668317,82.7648515 C2.46815842,83.0815545 2.80036634,83.3261881 3.22273267,83.499901 C3.64481188,83.6733267 4.1860495,83.7611881 4.84644554,83.7611881 C5.24124752,83.7611881 5.61279208,83.7402277 5.95993069,83.6991683 L5.95993069,83.6991683 Z" id="Fill-2"></path>
                        </g>
                    </g>
                </g>
            </g>
        </g>
    </g>
</svg>